# Blender v2.76 (sub 0) OBJ File: ''
# www.blender.org
mtllib steppingstones.mtl
o node.007_FinalPlatform-mesh
v 2.430000 0.000000 0.340000
v 2.430000 0.000000 -0.340000
v 1.920000 0.000000 -0.340000
v 1.920000 0.000000 0.000000
v 1.750000 0.000000 0.000000
v 1.750000 0.000000 0.340000
v 2.430000 0.050000 0.340000
v 2.430000 0.050000 -0.340000
v 1.920000 0.050000 -0.340000
v 1.920000 0.050000 0.000000
v 1.750000 0.050000 0.000000
v 1.750000 0.050000 0.340000
vn 0.000000 1.000000 -0.000000
vn 0.000000 -1.000000 0.000000
vn 1.000000 0.000000 0.000000
vn 0.000000 0.000000 -1.000000
vn -1.000000 0.000000 0.000000
vn 0.000000 0.000000 1.000000
usemtl Material.002
s off
f 7//1 8//1 9//1 10//1 11//1 12//1
f 1//2 6//2 5//2 4//2 3//2 2//2
f 1//3 2//3 8//3 7//3
f 9//4 8//4 2//4 3//4
f 4//5 10//5 9//5 3//5
f 5//4 11//4 10//4 4//4
f 6//5 12//5 11//5 5//5
f 1//6 7//6 12//6 6//6
o node.006_Stone10cm-mesh.001
v 1.890000 0.000000 -0.345000
v 1.890000 0.000000 -0.005000
v 1.550000 0.000000 -0.005000
v 1.550000 0.000000 -0.345000
v 1.890000 0.100000 -0.345000
v 1.890000 0.100000 -0.005000
v 1.550000 0.100000 -0.005000
v 1.550000 0.100000 -0.345000
vn 0.577300 -0.577300 -0.577300
vn 0.577300 -0.577300 0.577300
vn -0.577300 -0.577300 0.577300
vn -0.577300 -0.577300 -0.577300
vn 0.577300 0.577300 -0.577300
vn -0.577300 0.577300 -0.577300
vn -0.577300 0.577300 0.577300
vn 0.577300 0.577300 0.577300
usemtl Material.002
s 1
f 13//7 14//8 15//9 16//10
f 17//11 20//12 19//13 18//14
f 13//7 17//11 18//14 14//8
f 14//8 18//14 19//13 15//9
f 15//9 19//13 20//12 16//10
f 17//11 13//7 16//10 20//12
o node.005_Stone15cm-mesh
v 1.690000 0.000000 0.005000
v 1.690000 0.000000 0.345000
v 1.350000 0.000000 0.345000
v 1.350000 0.000000 0.005000
v 1.690000 0.150000 0.005000
v 1.690000 0.150000 0.345000
v 1.350000 0.150000 0.345000
v 1.350000 0.150000 0.005000
vn 0.577300 -0.577300 -0.577300
vn 0.577300 -0.577300 0.577300
vn -0.577300 -0.577300 0.577300
vn -0.577300 -0.577300 -0.577300
vn 0.577300 0.577300 -0.577300
vn -0.577300 0.577300 -0.577300
vn -0.577300 0.577300 0.577300
vn 0.577300 0.577300 0.577300
usemtl Material.002
s 1
f 21//15 22//16 23//17 24//18
f 25//19 28//20 27//21 26//22
f 21//15 25//19 26//22 22//16
f 22//16 26//22 27//21 23//17
f 23//17 27//21 28//20 24//18
f 25//19 21//15 24//18 28//20
o node.004_Stone20cm-mesh
v 1.490000 0.000000 -0.345000
v 1.490000 0.000000 -0.005000
v 1.150000 0.000000 -0.005000
v 1.150000 0.000000 -0.345000
v 1.490000 0.200000 -0.345000
v 1.490000 0.200000 -0.005000
v 1.150000 0.200000 -0.005000
v 1.150000 0.200000 -0.345000
vn 0.577300 -0.577300 -0.577300
vn 0.577300 -0.577300 0.577300
vn -0.577300 -0.577300 0.577300
vn -0.577300 -0.577300 -0.577300
vn 0.577300 0.577300 -0.577300
vn -0.577300 0.577300 -0.577300
vn -0.577300 0.577300 0.577300
vn 0.577300 0.577300 0.577300
usemtl Material.002
s 1
f 29//23 30//24 31//25 32//26
f 33//27 36//28 35//29 34//30
f 29//23 33//27 34//30 30//24
f 30//24 34//30 35//29 31//25
f 31//25 35//29 36//28 32//26
f 33//27 29//23 32//26 36//28
o node.003_Stone20cm-mesh
v 1.290000 0.000000 0.005000
v 1.290000 0.000000 0.345000
v 0.950000 0.000000 0.345000
v 0.950000 0.000000 0.005000
v 1.290000 0.200000 0.005000
v 1.290000 0.200000 0.345000
v 0.950000 0.200000 0.345000
v 0.950000 0.200000 0.005000
vn 0.577300 -0.577300 -0.577300
vn 0.577300 -0.577300 0.577300
vn -0.577300 -0.577300 0.577300
vn -0.577300 -0.577300 -0.577300
vn 0.577300 0.577300 -0.577300
vn -0.577300 0.577300 -0.577300
vn -0.577300 0.577300 0.577300
vn 0.577300 0.577300 0.577300
usemtl Material.002
s 1
f 37//31 38//32 39//33 40//34
f 41//35 44//36 43//37 42//38
f 37//31 41//35 42//38 38//32
f 38//32 42//38 43//37 39//33
f 39//33 43//37 44//36 40//34
f 41//35 37//31 40//34 44//36
o node.002_Stone15cm-mesh
v 1.090000 0.000000 -0.345000
v 1.090000 0.000000 -0.005000
v 0.750000 0.000000 -0.005000
v 0.750000 0.000000 -0.345000
v 1.090000 0.150000 -0.345000
v 1.090000 0.150000 -0.005000
v 0.750000 0.150000 -0.005000
v 0.750000 0.150000 -0.345000
vn 0.577300 -0.577300 -0.577300
vn 0.577300 -0.577300 0.577300
vn -0.577300 -0.577300 0.577300
vn -0.577300 -0.577300 -0.577300
vn 0.577300 0.577300 -0.577300
vn -0.577300 0.577300 -0.577300
vn -0.577300 0.577300 0.577300
vn 0.577300 0.577300 0.577300
usemtl Material.002
s 1
f 45//39 46//40 47//41 48//42
f 49//43 52//44 51//45 50//46
f 45//39 49//43 50//46 46//40
f 46//40 50//46 51//45 47//41
f 47//41 51//45 52//44 48//42
f 49//43 45//39 48//42 52//44
o node.001_Stone10cm-mesh.001
v 0.870000 0.000000 0.005000
v 0.870000 0.000000 0.345000
v 0.530000 0.000000 0.345000
v 0.530000 0.000000 0.005000
v 0.870000 0.100000 0.005000
v 0.870000 0.100000 0.345000
v 0.530000 0.100000 0.345000
v 0.530000 0.100000 0.005000
vn 0.577300 -0.577300 -0.577300
vn 0.577300 -0.577300 0.577300
vn -0.577300 -0.577300 0.577300
vn -0.577300 -0.577300 -0.577300
vn 0.577300 0.577300 -0.577300
vn -0.577300 0.577300 -0.577300
vn -0.577300 0.577300 0.577300
vn 0.577300 0.577300 0.577300
usemtl Material.002
s 1
f 53//47 54//48 55//49 56//50
f 57//51 60//52 59//53 58//54
f 53//47 57//51 58//54 54//48
f 54//48 58//54 59//53 55//49
f 55//49 59//53 60//52 56//50
f 57//51 53//47 56//50 60//52
o node_Stone5cm-mesh
v 0.670000 0.000000 -0.345000
v 0.670000 0.000000 -0.005000
v 0.330000 0.000000 -0.005000
v 0.330000 0.000000 -0.345000
v 0.670000 0.050000 -0.345000
v 0.670000 0.050000 -0.005000
v 0.330000 0.050000 -0.005000
v 0.330000 0.050000 -0.345000
vn 0.577300 -0.577300 -0.577300
vn 0.577300 -0.577300 0.577300
vn -0.577300 -0.577300 0.577300
vn -0.577300 -0.577300 -0.577300
vn 0.577300 0.577300 -0.577300
vn -0.577300 0.577300 -0.577300
vn -0.577300 0.577300 0.577300
vn 0.577300 0.577300 0.577300
usemtl Material.002
s 1
f 61//55 62//56 63//57 64//58
f 65//59 68//60 67//61 66//62
f 61//55 65//59 66//62 62//56
f 62//56 66//62 67//61 63//57
f 63//57 67//61 68//60 64//58
f 65//59 61//55 64//58 68//60
